<?xml version="1.0" encoding="iso-8859-1"?>
<!-- Generator: Adobe Illustrator 17.1.0, SVG Export Plug-In . SVG Version: 6.00 Build 0)  -->
<!DOCTYPE svg PUBLIC "-//W3C//DTD SVG 1.1//EN" "http://www.w3.org/Graphics/SVG/1.1/DTD/svg11.dtd">
<svg version="1.1" id="Capa_1" xmlns="http://www.w3.org/2000/svg" xmlns:xlink="http://www.w3.org/1999/xlink" x="0px" y="0px" 
	 viewBox="0 0 220.26 220.26" style="enable-background:new 0 0 220.26 220.26;" xml:space="preserve">
<path fill="gold" d="M154.061,172.28c-0.785,0-1.529-0.465-1.849-1.235c-0.423-1.02,0.061-2.189,1.08-2.612l0,0
	c0.31-0.129,31.052-13.336,34.792-48.455c2.853-26.794-8.572-41.551-12.09-45.397c-2.536,0.134-10.709,0.173-15.656-4.613
	c-5.532-5.352-8.911-18.935-9.052-19.51c-0.164-0.667,0.027-1.373,0.505-1.867s1.174-0.709,1.849-0.566
	c0.58,0.122,14.269,3.045,19.802,8.397c4.69,4.537,5.148,12.117,5.137,15.055c3.678,3.821,16.611,19.545,13.483,48.925
	c-3.997,37.533-36.904,51.588-37.236,51.726C154.575,172.23,154.316,172.28,154.061,172.28z M156.08,52.739
	c1.416,4.587,4.001,11.415,7.039,14.354c3.002,2.903,8.237,3.535,11.401,3.535c0.014,0,0.028,0,0.042,0
	c-0.086-2.791-0.689-8.223-3.902-11.331C167.623,56.358,160.712,54.001,156.08,52.739z M66.199,172.28
	c-0.255,0-0.515-0.049-0.765-0.153c-0.332-0.138-33.239-14.192-37.235-51.726c-3.129-29.38,9.805-45.104,13.482-48.925
	c-0.012-2.938,0.446-10.518,5.137-15.055c5.533-5.352,19.222-8.276,19.802-8.397c0.672-0.142,1.37,0.072,1.849,0.566
	c0.478,0.494,0.669,1.199,0.505,1.867c-0.141,0.576-3.52,14.159-9.052,19.51c-4.942,4.781-13.108,4.754-15.648,4.613
	c-3.507,3.862-14.939,18.703-12.098,45.397c3.74,35.119,34.482,48.326,34.792,48.455c1.019,0.425,1.502,1.595,1.078,2.614
	C67.727,171.815,66.983,172.28,66.199,172.28z M45.697,70.615c0.019,0,0.036,0,0.055,0c2.812,0,8.201-0.439,11.389-3.523
	c3.043-2.943,5.627-9.769,7.041-14.354C59.55,54,52.638,56.357,49.6,59.296C46.392,62.399,45.785,67.819,45.697,70.615z
	 M192.82,161.854c-0.146,0-0.29-0.002-0.434-0.008c-6.963-0.254-12.489-6.686-12.722-6.959c-0.668-0.789-0.625-1.956,0.099-2.694
	c0.251-0.256,6.232-6.252,13.195-6.013c6.621,0.242,16.598,6.469,17.02,6.733c0.604,0.38,0.96,1.053,0.935,1.767
	c-0.026,0.713-0.431,1.358-1.062,1.693C209.421,156.602,199.451,161.854,192.82,161.854z M184.1,153.694
	c1.75,1.602,4.957,4.029,8.433,4.156c3.324,0.104,8.466-1.783,12.098-3.398c-3.507-1.877-8.497-4.152-11.818-4.274l0,0
	C189.537,150.063,186.137,152.097,184.1,153.694z M27.441,161.854c-6.632,0-16.602-5.252-17.031-5.48
	c-0.631-0.335-1.035-0.98-1.062-1.693c-0.025-0.713,0.33-1.387,0.935-1.767c0.422-0.265,10.398-6.492,17.02-6.733
	c6.976-0.238,12.944,5.757,13.195,6.013c0.724,0.738,0.767,1.905,0.099,2.694c-0.232,0.273-5.759,6.705-12.722,6.959
	C27.732,161.852,27.586,161.854,27.441,161.854z M15.63,154.45c3.636,1.616,8.794,3.511,12.098,3.399
	c3.29-0.12,6.519-2.4,8.434-4.143c-1.862-1.47-5.227-3.654-8.713-3.529C24.121,150.299,19.134,152.574,15.63,154.45z
	 M174.855,149.35c-0.259,0-0.521-0.05-0.771-0.155c-0.312-0.131-7.671-3.271-9.466-9.276l0,0c-1.664-5.57,1.052-15.289,1.367-16.379
	c0.188-0.653,0.696-1.166,1.348-1.36c0.653-0.195,1.357-0.044,1.874,0.397c0.862,0.738,8.467,7.373,10.131,12.943
	c1.796,6.005-2.634,12.668-2.823,12.949C176.132,149.034,175.503,149.35,174.855,149.35z M168.449,138.774
	c0.834,2.789,3.77,4.861,5.618,5.926c0.964-1.898,2.277-5.226,1.438-8.035c-0.812-2.716-3.976-6.312-6.468-8.785
	C168.312,131.318,167.64,136.064,168.449,138.774L168.449,138.774z M45.405,149.35c-0.649,0-1.277-0.316-1.659-0.881
	c-0.189-0.28-4.619-6.943-2.823-12.949c1.664-5.57,9.269-12.205,10.131-12.943c0.517-0.442,1.222-0.593,1.874-0.397
	c0.651,0.194,1.159,0.707,1.348,1.36c0.315,1.09,3.031,10.809,1.367,16.379c-1.795,6.005-9.154,9.145-9.466,9.276
	C45.926,149.3,45.664,149.35,45.405,149.35z M51.225,127.881c-2.494,2.476-5.66,6.075-6.47,8.785
	c-0.84,2.811,0.476,6.141,1.44,8.039c1.847-1.057,4.774-3.12,5.615-5.931C52.622,136.059,51.95,131.316,51.225,127.881z
	 M201.214,139.443c-5.292,0-10.075-2.727-10.325-2.871c-0.882-0.511-1.239-1.603-0.829-2.536c0.146-0.332,3.65-8.15,10.284-10.317
	c6.304-2.057,17.858,0.448,18.347,0.555c0.691,0.152,1.251,0.659,1.471,1.332s0.067,1.412-0.4,1.943
	c-0.331,0.375-8.176,9.219-14.482,11.279C203.935,139.266,202.558,139.443,201.214,139.443z M194.634,133.945
	c2.194,0.929,6.084,2.167,9.402,1.081c3.184-1.04,7.373-4.68,10.214-7.488c-3.952-0.588-9.487-1.055-12.664-0.016l0,0
	C198.265,128.606,195.858,131.898,194.634,133.945z M19.046,139.443c-1.344,0-2.721-0.176-4.064-0.615
	c-6.307-2.06-14.151-10.903-14.482-11.279c-0.468-0.531-0.62-1.271-0.4-1.943s0.779-1.18,1.471-1.332
	c0.489-0.108,12.04-2.616,18.348-0.555c6.633,2.167,10.137,9.985,10.283,10.317c0.41,0.933,0.053,2.025-0.829,2.536
	C29.121,136.716,24.337,139.443,19.046,139.443z M6.011,127.536c2.843,2.809,7.035,6.452,10.213,7.489
	c3.145,1.029,7.005-0.061,9.408-1.072c-1.222-2.045-3.632-5.346-6.957-6.432C15.494,126.481,9.961,126.948,6.011,127.536z
	 M139.492,128.276c-0.318,0-0.638-0.076-0.931-0.229l-8.412-4.423l-8.412,4.423c-0.674,0.354-1.489,0.295-2.106-0.152
	c-0.615-0.448-0.924-1.206-0.796-1.956l1.606-9.367l-6.805-6.634c-0.545-0.531-0.741-1.326-0.506-2.05s0.861-1.251,1.615-1.361
	l9.404-1.367l4.205-8.522c0.337-0.683,1.032-1.115,1.794-1.115s1.457,0.432,1.794,1.115l4.205,8.522l9.405,1.367
	c0.754,0.109,1.38,0.637,1.615,1.361s0.039,1.519-0.506,2.05l-6.806,6.634l1.606,9.367c0.128,0.75-0.181,1.508-0.796,1.956
	C140.32,128.147,139.906,128.276,139.492,128.276z M130.15,119.365c0.319,0,0.64,0.077,0.931,0.229l5.756,3.026l-1.1-6.41
	c-0.11-0.648,0.104-1.311,0.575-1.77l4.657-4.539l-6.436-0.935c-0.652-0.094-1.215-0.503-1.507-1.094l-2.877-5.831l-2.877,5.831
	c-0.292,0.59-0.854,1-1.507,1.094l-6.435,0.935l4.656,4.539c0.471,0.459,0.686,1.122,0.575,1.77l-1.1,6.41l5.756-3.026
	C129.51,119.441,129.83,119.365,130.15,119.365z M99.453,128.276c-0.318,0-0.638-0.076-0.931-0.229l-8.412-4.423l-8.412,4.423
	c-0.673,0.354-1.489,0.295-2.106-0.152c-0.615-0.448-0.924-1.206-0.796-1.956l1.606-9.367l-6.805-6.634
	c-0.545-0.531-0.741-1.326-0.506-2.05s0.861-1.251,1.615-1.361l9.403-1.367l4.207-8.522c0.337-0.683,1.031-1.115,1.793-1.115l0,0
	c0.762,0,1.457,0.432,1.794,1.115l4.205,8.522l9.404,1.367c0.754,0.109,1.38,0.637,1.615,1.361s0.039,1.519-0.506,2.05l-6.805,6.634
	l1.606,9.367c0.128,0.75-0.181,1.508-0.796,1.956C100.28,128.147,99.867,128.276,99.453,128.276z M90.111,119.365
	c0.319,0,0.64,0.077,0.931,0.229l5.756,3.026l-1.1-6.41c-0.11-0.648,0.104-1.311,0.575-1.77l4.656-4.539l-6.435-0.935
	c-0.652-0.094-1.215-0.503-1.507-1.094l-2.877-5.832l-2.879,5.832c-0.291,0.59-0.854,1-1.506,1.094l-6.434,0.935l4.656,4.539
	c0.471,0.459,0.686,1.122,0.575,1.77l-1.1,6.41l5.756-3.026C89.471,119.441,89.791,119.365,90.111,119.365z M185.251,123.671
	c-1.244,0-8.221-0.197-12.102-4.496v0c-3.88-4.298-5.787-14.056-5.991-15.155c-0.128-0.684,0.109-1.385,0.626-1.851
	c0.517-0.466,1.239-0.629,1.905-0.434c1.071,0.316,10.584,3.209,14.464,7.507c4.181,4.632,3.258,12.353,3.217,12.679
	c-0.124,0.982-0.948,1.725-1.938,1.749C185.409,123.67,185.348,123.671,185.251,123.671z M176.118,116.494
	c1.934,2.142,5.278,2.841,7.365,3.068c-0.013-2.098-0.366-5.498-2.299-7.64c-1.869-2.07-6.069-3.992-9.304-5.216
	C172.771,110.051,174.254,114.429,176.118,116.494L176.118,116.494z M35.009,123.671c-0.097,0-0.158-0.001-0.182-0.001
	c-0.989-0.023-1.813-0.767-1.938-1.749c-0.041-0.326-0.964-8.047,3.217-12.678c3.88-4.298,13.393-7.192,14.464-7.508
	c0.671-0.196,1.39-0.032,1.905,0.434c0.517,0.466,0.754,1.167,0.626,1.851c-0.204,1.099-2.111,10.856-5.992,15.155
	C43.231,123.474,36.254,123.671,35.009,123.671z M48.38,106.708c-3.236,1.226-7.439,3.149-9.305,5.215
	c-1.933,2.141-2.286,5.541-2.299,7.64c2.086-0.228,5.432-0.926,7.364-3.068C46.009,114.424,47.492,110.05,48.38,106.708z
	 M24.209,114.953c-2.148,0-9.167-0.35-13.305-4.698c-4.586-4.818-7.135-16.493-7.24-16.987C3.518,92.588,3.737,91.88,4.24,91.4
	c0.505-0.48,1.223-0.665,1.896-0.483c0.488,0.13,12.021,3.253,16.606,8.071c4.826,5.071,4.028,13.784,3.992,14.153
	c-0.097,0.986-0.902,1.753-1.893,1.801C24.789,114.944,24.567,114.953,24.209,114.953z M8.44,95.812
	c1.112,3.877,3.031,9.238,5.362,11.686c2.305,2.422,6.358,3.221,8.996,3.411c-0.049-2.401-0.512-6.6-2.953-9.164
	C17.515,99.297,12.257,97.115,8.44,95.812z M196.051,114.953c-0.356,0-0.579-0.01-0.632-0.012c-0.99-0.048-1.795-0.814-1.893-1.801
	c-0.036-0.368-0.835-9.082,3.99-14.153c0,0,0,0,0.001,0c4.585-4.818,16.118-7.94,16.606-8.071c0.676-0.18,1.391,0.003,1.896,0.483
	c0.504,0.48,0.723,1.188,0.576,1.869c-0.105,0.495-2.654,12.169-7.239,16.987C205.218,114.603,198.2,114.953,196.051,114.953z
	 M200.415,101.745c-2.438,2.561-2.902,6.75-2.952,9.154c2.397-0.168,6.559-0.84,8.996-3.401c2.334-2.453,4.252-7.812,5.363-11.687
	C208.005,97.114,202.745,99.296,200.415,101.745L200.415,101.745z M45.632,96.032c-4.873,0-9.264-2.679-9.486-2.817
	c-0.877-0.544-1.196-1.666-0.737-2.59c0.142-0.285,3.541-7.006,9.51-8.705c5.643-1.608,15.688,0.903,16.115,1.011
	c0.691,0.175,1.237,0.705,1.433,1.392c0.195,0.686,0.01,1.424-0.485,1.937c-0.305,0.315-7.526,7.742-13.166,9.347
	C47.756,95.907,46.683,96.032,45.632,96.032z M40.027,90.71c1.89,0.828,4.975,1.822,7.692,1.049
	c2.622-0.747,6.125-3.456,8.669-5.707c-3.349-0.575-7.751-1.032-10.374-0.286C43.297,86.539,41.197,89.01,40.027,90.71z
	 M174.627,96.032c-1.051,0-2.123-0.125-3.183-0.426l0,0c-5.639-1.605-12.86-9.031-13.165-9.347
	c-0.495-0.513-0.681-1.251-0.485-1.937c0.195-0.687,0.741-1.216,1.433-1.392c0.426-0.107,10.475-2.618,16.115-1.011
	c5.969,1.699,9.368,8.42,9.51,8.705c0.459,0.924,0.14,2.046-0.737,2.59C183.892,93.352,179.5,96.031,174.627,96.032z M163.87,86.05
	c2.545,2.252,6.048,4.962,8.67,5.708l0,0c2.698,0.769,5.793-0.228,7.69-1.054c-1.171-1.699-3.27-4.166-5.984-4.939
	C171.618,85.018,167.217,85.476,163.87,86.05z M191.029,90.04c-0.699,0-1.37-0.368-1.735-1.005
	c-0.186-0.322-4.498-7.963-2.158-14.564c2.223-6.272,11.511-13.816,11.905-14.134c0.542-0.436,1.27-0.561,1.924-0.329
	c0.655,0.232,1.143,0.788,1.288,1.467c0.105,0.496,2.569,12.206,0.345,18.478c-2.34,6.6-10.502,9.819-10.849,9.953
	C191.513,89.996,191.27,90.04,191.029,90.04z M198.938,65.731c-2.965,2.742-6.901,6.885-8.032,10.075
	c-1.118,3.156,0.021,7.145,1.055,9.584c2.125-1.124,5.684-3.433,6.868-6.775C199.962,75.419,199.514,69.726,198.938,65.731z
	 M29.231,90.04c-0.24,0-0.483-0.044-0.72-0.135c-0.347-0.134-8.509-3.353-10.849-9.953c-2.225-6.271,0.238-17.982,0.344-18.478
	c0.146-0.68,0.633-1.235,1.288-1.467c0.654-0.232,1.383-0.107,1.924,0.329c0.395,0.318,9.684,7.862,11.906,14.134
	c2.34,6.601-1.973,14.242-2.158,14.564C30.601,89.672,29.93,90.04,29.231,90.04z M21.323,65.731
	c-0.575,3.998-1.022,9.694,0.108,12.885c1.183,3.337,4.731,5.644,6.859,6.771c0.942-2.214,2.246-6.242,1.063-9.58
	C28.221,72.61,24.287,68.471,21.323,65.731z"/>
<g>
</g>
<g>
</g>
<g>
</g>
<g>
</g>
<g>
</g>
<g>
</g>
<g>
</g>
<g>
</g>
<g>
</g>
<g>
</g>
<g>
</g>
<g>
</g>
<g>
</g>
<g>
</g>
<g>
</g>
</svg>
